<svg xmlns="http://www.w3.org/2000/svg" viewBox="64 62 76 76" width="100%" height="100%">
    <!-- 头像路径 -->
    <path style="opacity:1" fill="#fbfbfb" d="M 114.5,65.5 C 115.659,67.2503 117.326,68.2503 119.5,68.5C 121.103,71.1081 123.103,73.4414 125.5,75.5C 122.44,79.2127 118.44,81.7127 113.5,83C 104.798,85.4967 96.1309,87.6634 87.5,89.5C 80.5,89.5 73.5,89.5 66.5,89.5C 66.1193,84.1979 67.1193,79.1979 69.5,74.5C 71.5,73.1667 73.1667,71.5 74.5,69.5C 87.2689,63.2686 100.602,61.9353 114.5,65.5 Z"/>
    <path style="opacity:1" fill="#a7a7a7" d="M 114.5,65.5 C 100.602,61.9353 87.2689,63.2686 74.5,69.5C 74.9528,68.5416 75.6195,67.7083 76.5,67C 86.7433,62.6988 97.4099,61.3655 108.5,63C 110.852,63.2401 112.852,64.0735 114.5,65.5 Z"/>
    <path style="opacity:1" fill="#9f9f9f" d="M 114.5,65.5 C 116.674,65.7497 118.341,66.7497 119.5,68.5C 117.326,68.2503 115.659,67.2503 114.5,65.5 Z"/>
    <path style="opacity:1" fill="#ababab" d="M 119.5,68.5 C 122.652,69.7791 124.652,72.1125 125.5,75.5C 123.103,73.4414 121.103,71.1081 119.5,68.5 Z"/>
    <path style="opacity:1" fill="#9e9e9e" d="M 74.5,69.5 C 73.1667,71.5 71.5,73.1667 69.5,74.5C 70.1667,71.8333 71.8333,70.1667 74.5,69.5 Z"/>
    <path style="opacity:1" fill="#a4a4a4" d="M 125.5,75.5 C 128.05,81.1082 129.05,87.1082 128.5,93.5C 132.629,93.9652 134.629,96.2985 134.5,100.5C 134.876,105.121 132.876,107.788 128.5,108.5C 129.042,118.084 125.375,125.417 117.5,130.5C 124.294,124.486 127.628,116.819 127.5,107.5C 131.548,107.276 133.215,105.109 132.5,101C 132.955,98.0769 131.955,95.9103 129.5,94.5C 128.702,96.0777 128.202,97.7444 128,99.5C 127.667,94.8333 127.333,90.1667 127,85.5C 126.767,83.2199 125.934,81.2199 124.5,79.5C 116.513,83.4954 108.18,86.4954 99.5,88.5C 95.5662,89.3597 91.5662,89.693 87.5,89.5C 96.1309,87.6634 104.798,85.4967 113.5,83C 118.44,81.7127 122.44,79.2127 125.5,75.5 Z"/>
    <path style="opacity:1" fill="#fafafa" d="M 117.5,130.5 C 113.62,131.971 109.62,133.138 105.5,134C 104.117,135.271 103.117,136.771 102.5,138.5C 101.504,138.414 100.671,138.748 100,139.5C 98.6003,138.252 97.1003,137.252 95.5,136.5C 95.1231,134.742 94.4565,133.075 93.5,131.5C 93.8333,131.167 94.1667,130.833 94.5,130.5C 97.6346,131.783 100.635,131.783 103.5,130.5C 99.8212,130.276 96.1545,129.942 92.5,129.5C 92.5,130.833 92.5,132.167 92.5,133.5C 90.0733,133.477 87.74,132.977 85.5,132C 82.4706,129.824 79.4706,127.657 76.5,125.5C 74.5752,121.726 73.2419,117.726 72.5,113.5C 72.5,107.167 72.5,100.833 72.5,94.5C 75.1178,94.2208 77.6178,93.5541 80,92.5C 81.2087,92.6526 82.3754,92.9859 83.5,93.5C 82.3709,95.6282 82.2042,97.9615 83,100.5C 84.6155,101.801 86.1155,101.801 87.5,100.5C 89.7528,98.5497 90.0861,96.2163 88.5,93.5C 88.9704,92.3065 89.9704,91.6399 91.5,91.5C 94.5,91 97.5,90.5 100.5,90C 99.944,89.6174 99.6107,89.1174 99.5,88.5C 108.18,86.4954 116.513,83.4954 124.5,79.5C 125.934,81.2199 126.767,83.2199 127,85.5C 127.333,90.1667 127.667,94.8333 128,99.5C 128.202,97.7444 128.702,96.0777 129.5,94.5C 131.955,95.9103 132.955,98.0769 132.5,101C 133.215,105.109 131.548,107.276 127.5,107.5C 127.628,116.819 124.294,124.486 117.5,130.5 Z"/>
    <path style="opacity:1" fill="#a3a3a3" d="M 69.5,74.5 C 67.1193,79.1979 66.1193,84.1979 66.5,89.5C 73.5,89.5 80.5,89.5 87.5,89.5C 82.4333,90.1882 77.2666,90.8549 72,91.5C 71.1782,99.0118 71.3448,106.345 72.5,113.5C 73.2419,117.726 74.5752,121.726 76.5,125.5C 75.5416,125.047 74.7083,124.381 74,123.5C 71.9357,118.686 70.4357,113.686 69.5,108.5C 67.7869,108.121 66.7869,107.121 66.5,105.5C 67.7206,106.028 68.8873,106.695 70,107.5C 70.6667,103.167 70.6667,98.8333 70,94.5C 69.3292,95.2524 68.4959,95.5858 67.5,95.5C 69.2785,94.3303 70.2785,92.6636 70.5,90.5C 68.5,90.5 66.5,90.5 64.5,90.5C 64.0265,84.3649 65.6932,79.0316 69.5,74.5 Z"/>
    <path style="opacity:1" fill="#dfdfdf" d="M 99.5,88.5 C 99.6107,89.1174 99.944,89.6174 100.5,90C 97.5,90.5 94.5,91 91.5,91.5C 89.9704,91.6399 88.9704,92.3065 88.5,93.5C 86.8333,93.5 85.1667,93.5 83.5,93.5C 82.3754,92.9859 81.2087,92.6526 80,92.5C 77.6178,93.5541 75.1178,94.2208 72.5,94.5C 72.5,100.833 72.5,107.167 72.5,113.5C 71.3448,106.345 71.1782,99.0118 72,91.5C 77.2666,90.8549 82.4333,90.1882 87.5,89.5C 91.5662,89.693 95.5662,89.3597 99.5,88.5 Z"/>
    <path style="opacity:1" fill="#acacac" d="M 83.5,93.5 C 85.1667,93.5 86.8333,93.5 88.5,93.5C 90.0861,96.2163 89.7528,98.5497 87.5,100.5C 86.1155,101.801 84.6155,101.801 83,100.5C 82.2042,97.9615 82.3709,95.6282 83.5,93.5 Z"/>
    <path style="opacity:1" fill="#eeeeee" d="M 87.5,100.5 C 83.65,100.299 82.65,98.4659 84.5,95C 85.448,94.5172 86.448,94.3505 87.5,94.5C 87.5,96.5 87.5,98.5 87.5,100.5 Z"/>
    <path style="opacity:1" fill="#f5f5f5" d="M 66.5,105.5 C 66.3424,102.098 66.6758,98.7644 67.5,95.5C 68.4959,95.5858 69.3292,95.2524 70,94.5C 70.6667,98.8333 70.6667,103.167 70,107.5C 68.8873,106.695 67.7206,106.028 66.5,105.5 Z"/>
    <path style="opacity:1" fill="#a1a1a1" d="M 110.5,94.5 C 111.884,93.1991 113.384,93.1991 115,94.5C 115.758,96.7695 115.591,98.9361 114.5,101C 112.888,101.72 111.388,101.554 110,100.5C 109.211,98.2884 109.378,96.2884 110.5,94.5 Z"/>
    <path style="opacity:1" fill="#f5f5f5" d="M 110.5,94.5 C 114.071,94.4077 115.238,96.0743 114,99.5C 113,100.833 112,100.833 111,99.5C 110.506,97.8659 110.34,96.1992 110.5,94.5 Z"/>
    <path style="opacity:1" fill="#949494" d="M 67.5,95.5 C 66.6758,98.7644 66.3424,102.098 66.5,105.5C 65.8401,104.036 65.5068,102.369 65.5,100.5C 65.5561,98.3603 66.2227,96.6936 67.5,95.5 Z"/>
    <path style="opacity:1" fill="#aeaeae" d="M 89.5,116.5 C 95.2803,116.26 100.28,118.093 104.5,122C 102.193,121.358 99.8595,120.358 97.5,119C 93.8333,118.667 90.1667,118.333 86.5,118C 87.7375,117.768 88.7375,117.268 89.5,116.5 Z"/>
    <path style="opacity:1" fill="#8c8c8c" d="M 103.5,130.5 C 104.568,129.566 105.901,129.232 107.5,129.5C 107.649,130.552 107.483,131.552 107,132.5C 106.29,131.027 105.124,130.36 103.5,130.5 Z"/>
    <path style="opacity:1" fill="#a4a4a4" d="M 76.5,125.5 C 79.4706,127.657 82.4706,129.824 85.5,132C 87.74,132.977 90.0733,133.477 92.5,133.5C 92.5,132.167 92.5,130.833 92.5,129.5C 96.1545,129.942 99.8212,130.276 103.5,130.5C 100.635,131.783 97.6346,131.783 94.5,130.5C 94.1667,130.833 93.8333,131.167 93.5,131.5C 94.4565,133.075 95.1231,134.742 95.5,136.5C 91.0801,135.313 86.7467,133.813 82.5,132C 79.5914,130.594 77.5914,128.428 76.5,125.5 Z"/>
    <path style="opacity:1" fill="#a4a4a4" d="M 117.5,130.5 C 117.53,131.497 117.03,132.164 116,132.5C 112.934,133.713 109.767,134.547 106.5,135C 105.468,136.627 104.134,137.793 102.5,138.5C 103.117,136.771 104.117,135.271 105.5,134C 109.62,133.138 113.62,131.971 117.5,130.5 Z"/>
    <path style="opacity:1" fill="#a0a0a0" d="M 95.5,136.5 C 97.1003,137.252 98.6003,138.252 100,139.5C 100.671,138.748 101.504,138.414 102.5,138.5C 100.861,140.942 98.8607,141.109 96.5,139C 95.7476,138.329 95.4142,137.496 95.5,136.5 Z"/>
</svg>